<svg xmlns="http://www.w3.org/2000/svg" width="14" height="14" viewBox="0 0 14 14"><defs><style>.a{fill:#0055a6;fill-rule:evenodd;}</style></defs><path class="a" d="M13.554,10.333,11.346,9.059a.9.9,0,0,0-1.23.33l-.087.151a1.491,1.491,0,0,1-2.186.447A19.163,19.163,0,0,1,5.8,8.208,19.187,19.187,0,0,1,4.022,6.166,1.491,1.491,0,0,1,4.469,3.98l.151-.087a.9.9,0,0,0,.33-1.23L3.675.454A.893.893,0,0,0,2.567.066L2.54.077A8.958,8.958,0,0,0,.586,1a1.766,1.766,0,0,0-.142.16c-.763.974-.38,2.558.023,3.6A15.9,15.9,0,0,0,4.055,9.953a15.9,15.9,0,0,0,5.194,3.588,6.062,6.062,0,0,0,2.126.46,2.239,2.239,0,0,0,1.632-.58,8.749,8.749,0,0,0,.924-1.952l.011-.027A.894.894,0,0,0,13.554,10.333Z" transform="translate(-0.006 -0.002)"/></svg>