<svg xmlns="http://www.w3.org/2000/svg" width="171.088" height="222.542" viewBox="0 0 171.088 222.542"><defs><style>.a{fill:#b28941;}</style></defs><g transform="translate(-283.12 -53.773)"><g transform="translate(326.302 96.614)"><path class="a" d="M316.484,85.334q5-4.39,13.548-4.392a22.07,22.07,0,0,1,9.726,1.968,13.932,13.932,0,0,1,8.212,13.018,12.515,12.515,0,0,1-8.326,12.413v.3a13.664,13.664,0,0,1,6.812,4.768,13.876,13.876,0,0,1,2.5,8.553,15.786,15.786,0,0,1-2.157,8.288,14.743,14.743,0,0,1-6.282,5.64,21.878,21.878,0,0,1-9.8,2.042q-9.083,0-14.494-4.466T310.505,120h12.564a7.63,7.63,0,0,0,1.892,5.26,6.93,6.93,0,0,0,5.3,1.932,6.04,6.04,0,0,0,4.581-1.7,6.251,6.251,0,0,0,1.626-4.5q0-3.633-2.308-5.259t-7.38-1.629h-2.422V103.573h2.422a12.8,12.8,0,0,0,6.244-1.325q2.384-1.322,2.384-4.731a5.733,5.733,0,0,0-1.514-4.239,5.625,5.625,0,0,0-4.163-1.514,5.164,5.164,0,0,0-4.276,1.741,7.811,7.811,0,0,0-1.627,4.314H311.188Q311.488,89.724,316.484,85.334Z" transform="translate(-310.505 -80.942)"/><path class="a" d="M343.282,88.532q5.033-7.493,16.235-7.493t16.235,7.493q5.033,7.491,5.033,20.51,0,13.17-5.033,20.663T359.517,137.2q-11.2,0-16.235-7.493t-5.033-20.663Q338.249,96.026,343.282,88.532Zm23.123,8.74q-1.668-4.123-6.888-4.125t-6.888,4.125q-1.665,4.127-1.665,11.77a49.291,49.291,0,0,0,.606,8.515,10.875,10.875,0,0,0,2.46,5.45,8.274,8.274,0,0,0,10.975,0,10.9,10.9,0,0,0,2.46-5.45,49.461,49.461,0,0,0,.605-8.515Q368.07,101.4,366.405,97.273Z" transform="translate(-294.501 -80.886)"/></g><g transform="translate(325.055 157.539)"><path class="a" d="M322.475,119.579v12.813a6.059,6.059,0,0,1-1.676,4.584,6.248,6.248,0,0,1-4.518,1.608,6.68,6.68,0,0,1-4.77-1.689,6.263,6.263,0,0,1-1.8-4.8h4.557a2.81,2.81,0,0,0,.484,1.783,1.675,1.675,0,0,0,1.392.6,1.594,1.594,0,0,0,1.287-.536,2.333,2.333,0,0,0,.456-1.555V119.579Z" transform="translate(-309.714 -119.579)"/><path class="a" d="M332.317,135.073h-7.023l-1.126,3.324h-4.8l6.809-18.818h5.308L338.3,138.4h-4.852Zm-1.179-3.538-2.332-6.889-2.305,6.889Z" transform="translate(-304.144 -119.579)"/><path class="a" d="M348.98,119.579V138.4h-4.586V130.65h-7.13V138.4h-4.582V119.579h4.582v7.372h7.13v-7.372Z" transform="translate(-296.465 -119.579)"/><path class="a" d="M354.7,138.4l-3.914-7.1h-1.1v7.1h-4.584V119.579H352.8a8.491,8.491,0,0,1,3.794.777,5.363,5.363,0,0,1,2.345,2.132,5.94,5.94,0,0,1,.777,3.015,5.608,5.608,0,0,1-1.058,3.351,5.707,5.707,0,0,1-3.124,2.091l4.343,7.452Zm-5.013-10.347h2.841a2.6,2.6,0,0,0,1.891-.617,2.327,2.327,0,0,0,.629-1.742,2.258,2.258,0,0,0-.629-1.689,2.606,2.606,0,0,0-1.891-.617h-2.841Z" transform="translate(-289.297 -119.579)"/><path class="a" d="M360.776,123.251v3.806h6.139V130.6h-6.139v4.128h6.941V138.4H356.192V119.579h11.525v3.672Z" transform="translate(-282.903 -119.579)"/></g><g transform="translate(283.12 53.773)"><path class="a" d="M447.187,149.655l7.02-10.338-7.02-10.338,4.106-11.8-9.458-8.168.911-12.463L431.5,91.1l-2.345-12.274-12.274-2.345-5.443-11.251-12.463.913L390.8,56.689,379,60.795l-10.338-7.022-10.338,7.022-11.8-4.106-8.168,9.458-12.463-.913L320.45,76.484l-12.274,2.345L305.83,91.1l-11.249,5.442.911,12.463-9.456,8.168,4.106,11.8-7.022,10.338,7.022,10.338-4.106,11.8,9.456,8.17-.911,12.462,11.249,5.443,2.346,12.274,12.274,2.345,5.442,11.249,12.463-.911.166.192L321.28,260.4l25.952-4.4,15.1,20.308,7.715-44.051,8.857,37.71L395,250.5l25.925,2.321L396.571,215.27l2.4-2.782,12.463.911,5.443-11.249,12.274-2.345,2.345-12.274,11.249-5.443-.911-12.462,9.458-8.17Zm-50.1-71.5,2.009,1.079a1.34,1.34,0,0,0-.047,1.071,1.712,1.712,0,0,0,.842.855,1.853,1.853,0,0,0,1.189.26,1.058,1.058,0,0,0,.788-.568.969.969,0,0,0,.087-.774,2,2,0,0,0-.424-.735,12.442,12.442,0,0,0-.878-.885,13.333,13.333,0,0,1-1.214-1.288,2.906,2.906,0,0,1-.582-1.261,2.276,2.276,0,0,1,.3-1.539,2.559,2.559,0,0,1,1.142-1.127,2.959,2.959,0,0,1,1.638-.255,5.124,5.124,0,0,1,1.878.615,4.445,4.445,0,0,1,2,1.917,2.712,2.712,0,0,1,.013,2.368l-2.062-1.109a1.116,1.116,0,0,0-.008-.963,1.832,1.832,0,0,0-.853-.836,1.551,1.551,0,0,0-1.019-.21,1.045,1.045,0,0,0-.736.587.86.86,0,0,0-.065.716,2.133,2.133,0,0,0,.413.7q.291.341.859.889a12.859,12.859,0,0,1,1.217,1.3,3,3,0,0,1,.588,1.282,2.252,2.252,0,0,1-.29,1.536,2.662,2.662,0,0,1-1.086,1.091,3.039,3.039,0,0,1-1.653.345,4.639,4.639,0,0,1-1.973-.6,5.342,5.342,0,0,1-1.591-1.257,3.259,3.259,0,0,1-.755-1.567A2.579,2.579,0,0,1,397.091,78.157Zm-4.013-9.15,1.985.763-2.99,7.775,3.262,1.255-.566,1.47-5.248-2.018Zm-8.71-2.422,2.413.56,1.471,10.527-2.192-.509-.254-2-4.115-.957-1.109,1.679-2.176-.5Zm-18.583-1.7,3.981.065a4.925,4.925,0,0,1,2.091.438,2.973,2.973,0,0,1,1.282,1.113,2.914,2.914,0,0,1-.229,3.3,3.151,3.151,0,0,1-1.826,1.056l2.472,4.057-2.461-.041-2.279-3.9-1-.016-.061,3.86-2.129-.035Zm-10.22,1.173.591,4.03,4.5-.659-.59-4.03,2.105-.307,1.435,9.8-2.105.307-.61-4.171-4.5.659.61,4.171-2.105.307-1.435-9.8Zm-5.331,1.1.467,1.548-3.857,1.161.714,2.378,3.422-1.03.453,1.509-3.42,1.03.757,2.513,3.857-1.161.467,1.55-5.9,1.774-2.857-9.5Zm-17.593,6.985,6.3,5.1-.251-8.1,2.151-1.068,4.4,8.874-1.906.946-2.864-5.773.317,7.034-1.444.717-5.421-4.5,2.862,5.773-1.906.945-4.4-8.874Zm-4.07,125.327-.956,1.3-4.965-3.638,5.864-8,4.966,3.638-.957,1.306-3.248-2.381-1.468,2,2.881,2.11-.932,1.271-2.881-2.111-1.552,2.118Zm10.421,1.952a3.16,3.16,0,0,1-2.107.095l.322,4.738-2.165-1.17-.222-4.51-.883-.476L332.1,203.5l-1.872-1.012,4.712-8.712,3.5,1.894a4.913,4.913,0,0,1,1.653,1.353,2.968,2.968,0,0,1,.623,1.58,2.912,2.912,0,0,1-1.727,2.826Zm8.154,2.543-.552,1.474-3.174-1.191-1.47,3.92-1.993-.746,3.479-9.277,6.132,2.3-.563,1.5-4.141-1.552-.892,2.378Zm8.628,8.114-.285-1.993-4.13-.891-1.083,1.7-2.182-.471,5.82-8.893,2.421.524,1.638,10.5Zm13.78,1.191-2.126-.1.2-4.21-4.54-.213-.2,4.21-2.124-.1.462-9.895,2.124.1-.189,4.068,4.54.213.189-4.07,2.127.1Zm8.879-.746-2.747-3.583-1,.109.419,3.838-2.115.23-1.079-9.846,3.958-.434a4.922,4.922,0,0,1,2.129.173,2.958,2.958,0,0,1,1.411.945,2.912,2.912,0,0,1,.186,3.307,3.142,3.142,0,0,1-1.679,1.276l2.961,3.717Zm12.768-4.518a3.636,3.636,0,0,1-1.167,1.676,5.269,5.269,0,0,1-1.99,1,5.145,5.145,0,0,1-2.19.139,3.507,3.507,0,0,1-1.818-.867,3.862,3.862,0,0,1-1.1-1.914l-1.6-5.9,2.053-.558,1.607,5.918a2.018,2.018,0,0,0,.946,1.339,2.2,2.2,0,0,0,1.664.1,2.242,2.242,0,0,0,1.4-.932,2.021,2.021,0,0,0,.139-1.634l-1.607-5.916,2.069-.561,1.6,5.9A3.758,3.758,0,0,1,391.2,208.017Zm10.524-2.613-7.222-4.158,2.846,6.173-1.933.891-4.152-9.009,1.933-.891,7.227,4.171-2.851-6.188,1.932-.891,4.152,9.01Zm10.833-7.2a5.619,5.619,0,0,1-1.728,1.845,5.913,5.913,0,0,1-2.646,1.049,4.97,4.97,0,0,1-5.03-7.255,5.889,5.889,0,0,1,1.9-2.1,5.808,5.808,0,0,1,3.026-1.1,4.2,4.2,0,0,1,2.8.845l-2.01,1.392a2.406,2.406,0,0,0-1.367-.208,3.224,3.224,0,0,0-1.41.579,3.458,3.458,0,0,0-1.148,1.279,2.847,2.847,0,0,0-.289,1.583,3.763,3.763,0,0,0,1.962,2.818,2.858,2.858,0,0,0,1.6.271,3.618,3.618,0,0,0,1.651-.661,3.147,3.147,0,0,0,1.293-1.63,2.842,2.842,0,0,0-.121-1.962l-3,2.078-.866-1.249L411.9,192.5l.987,1.422a4.5,4.5,0,0,1,.342,2.094A5.093,5.093,0,0,1,412.558,198.2Zm-43.895,1.112a59.995,59.995,0,1,1,60-60A60,60,0,0,1,368.664,199.312Z" transform="translate(-283.12 -53.773)"/><path class="a" d="M318.745,144.967l-1.564-.845-1.384,2.559,1.566.845a1.846,1.846,0,0,0,1.321.271,1.4,1.4,0,0,0,.891-.752,1.334,1.334,0,0,0,.128-1.132A1.91,1.91,0,0,0,318.745,144.967Z" transform="translate(-264.271 -1.656)"/><path class="a" d="M342.656,149.365l-1.768.192.317,2.892,1.768-.192a1.863,1.863,0,0,0,1.243-.53,1.4,1.4,0,0,0,.3-1.124,1.337,1.337,0,0,0-.538-1A1.9,1.9,0,0,0,342.656,149.365Z" transform="translate(-249.797 1.356)"/><path class="a" d="M326.966,152.8l3,.647-.627-4.375Z" transform="translate(-257.828 1.2)"/><path class="a" d="M339.922,64.458a1.4,1.4,0,0,0,.443-1.08,1.329,1.329,0,0,0-.408-1.063,1.9,1.9,0,0,0-1.285-.4l-1.779-.028-.046,2.908,1.777.028A1.848,1.848,0,0,0,339.922,64.458Z" transform="translate(-252.128 -49.091)"/><path class="a" d="M348.65,63.495l-2.434,3.689,2.991.7Z" transform="translate(-246.723 -48.165)"/></g></g></svg>