<svg xmlns="http://www.w3.org/2000/svg" width="64" height="64" viewBox="0 0 64 64"><defs><style>.a{fill:#79b2e8;}</style></defs><g transform="translate(0)"><path class="a" d="M1763.87,182.74V169.95h-3.39a21.043,21.043,0,0,0-1.38-3.33l2.4-2.4-9.05-9.05-2.4,2.4a21.447,21.447,0,0,0-3.33-1.38V152.8h-4.56V139.13h-11.33V135.9H1711.2v3.23h-11.33v55h24.93l3.39,3.39,2.4-2.4a21.2,21.2,0,0,0,3.34,1.39v3.39h12.79v-3.39a20.709,20.709,0,0,0,3.33-1.39l2.4,2.4,9.05-9.04-2.4-2.4a21.15,21.15,0,0,0,1.38-3.34Zm-49.07-43.1h12.43v3.05H1714.8Zm-11.33,50.75V142.87h7.73v3.56h19.63v-3.56h7.73v9.93h-3.655v-2.586h-27.777v3.75h26.8v2.226a21.158,21.158,0,0,0-3.34,1.38l-2.4-2.4-2.49,2.49h-18.57v3.75h14.83l-2.81,2.81.88.88h-12.9v3.75h13.41c-.13.36-.26.73-.38,1.1h-3.39v2.6h-9.64v3.75h9.64v3.69h-9.64v3.75h13.38a20.334,20.334,0,0,0,1.04,2.34l-2.4,2.4,1.91,1.91Zm56.7-11.35h-2.55l-.34,1.42a17.309,17.309,0,0,1-2.06,4.97l-.76,1.24,1.81,1.81-3.82,3.81-1.8-1.8-1.24.76a17.658,17.658,0,0,1-4.98,2.06l-1.41.34v2.55h-5.39v-2.55l-1.42-.34a17.476,17.476,0,0,1-4.97-2.06l-1.24-.76-1.81,1.8-1.9-1.9-1.91-1.91,1.8-1.81-.76-1.24a16.1,16.1,0,0,1-.9-1.69,15.185,15.185,0,0,1-.75-1.87c-.16-.46-.29-.93-.41-1.41l-.11-.47-.23-.95h-2.55v-5.39h2.55l.27-1.1.07-.31a17.314,17.314,0,0,1,1.21-3.39,16,16,0,0,1,.85-1.58l.18-.29.58-.96-.92-.92h0l-.88-.88,2.8-2.81,1.01-1.01,1.01,1.01.8.8,1.24-.76c.02-.01.05-.03.07-.04a17.141,17.141,0,0,1,3.59-1.65c.43-.14.87-.26,1.31-.37l1.42-.34V156.5h5.39v2.55l1.41.34a17.371,17.371,0,0,1,4.98,2.06l1.24.76,1.8-1.81,3.82,3.82-1.81,1.8.76,1.25a17.194,17.194,0,0,1,2.06,4.97l.34,1.41h2.55Z" transform="translate(-1699.87 -135.9)"/><path class="a" d="M1742.16,161.55a13.985,13.985,0,0,0-1.84-.12,14.589,14.589,0,0,0-1.76.11,14.751,14.751,0,0,0-8.02,3.56,14.056,14.056,0,0,0-1.82,1.88,13.173,13.173,0,0,0-1.28,1.87,14.358,14.358,0,0,0-1.91,5.57,12.891,12.891,0,0,0-.13,1.88v.05a15,15,0,0,0,.45,3.64,13.352,13.352,0,0,0,.62,1.88,12.919,12.919,0,0,0,.91,1.87,14.9,14.9,0,0,0,7.91,6.65,14.736,14.736,0,0,0,5.03.88,13.985,13.985,0,0,0,1.84-.12,14.913,14.913,0,0,0,0-29.6Zm0,25.87a11.144,11.144,0,0,1-1.84.15,11.394,11.394,0,0,1-1.76-.14,11.207,11.207,0,0,1-6.67-3.69,10.734,10.734,0,0,1-1.33-1.87,10.3,10.3,0,0,1-.85-1.88,10.994,10.994,0,0,1-.61-3.64v-.05a10.6,10.6,0,0,1,.17-1.88,11.678,11.678,0,0,1,.49-1.87,11.164,11.164,0,0,1,2.23-3.7,11.4,11.4,0,0,1,2.17-1.87s.279-.179.39-.244l.35-.2a10.765,10.765,0,0,1,3.66-1.27,11.394,11.394,0,0,1,1.76-.14,11.221,11.221,0,0,1,1.84,22.29Z" transform="translate(-1699.87 -135.9)"/><path class="a" d="M1738.481,178.894l-3.088-4.707-3.135,2.058,4.659,7.1,3.138,0,7.894-12.087-3.141-2.051Z" transform="translate(-1699.87 -135.9)"/></g></svg>