<svg xmlns="http://www.w3.org/2000/svg" width="64" height="64" viewBox="0 0 64 64"><defs><style>.a{fill:#79b2e8;}</style></defs><g transform="translate(-365.774 -26.905)"><g transform="translate(365.774 26.905)"><path class="a" d="M429.774,47.113h-21.75v3.75h1.894l1.25,9.625h5.793v3.686H399.649V37.833a5.625,5.625,0,1,0-3.75,0V64.174H378.586V60.488h5.793l1.25-9.625h1.895v-3.75h-21.75v3.75h1.894l1.25,9.625h5.918v7.436H395.9V79.717h-13.25v7.438h-3.5V90.9H416.4v-3.75h-3.5V79.717h-13.25V67.924h21.062V60.488h5.918l1.25-9.625h1.895Zm-32-16.458A1.875,1.875,0,1,1,395.9,32.53,1.877,1.877,0,0,1,397.774,30.655ZM371.45,50.863h10.4l-.763,5.875h-8.872Zm37.7,36.292H386.4V83.467h22.75Zm14.186-30.417h-8.872l-.763-5.875h10.4Z" transform="translate(-365.774 -26.905)"/></g></g></svg>