<svg xmlns="http://www.w3.org/2000/svg" width="64" height="64" viewBox="0 0 64 64"><defs><style>.a{fill:#79b2e8;}</style></defs><g transform="translate(-1527.539 -235.76)"><path class="a" d="M1583.414,255.087V235.76h-47.75v19.327l-8.125,6.25V299.76h64V261.337Zm-44-15.577h40.25v33.816l-8.206,5.039h-23.5l-8.546-5.39Zm25.937,42.6-5.8,3.562-5.646-3.562Zm-34.062-18.932,4.375-3.365V270.61l-4.375-2.759Zm56.5,32.827h-56.5V272.284l28.237,17.81,28.263-17.357Zm0-27.674-4.375,2.687V259.818l4.375,3.365Z"/><rect class="a" width="30.896" height="3.75" transform="translate(1544.091 245.052)"/><rect class="a" width="30.896" height="3.75" transform="translate(1544.091 253.38)"/><rect class="a" width="30.896" height="3.75" transform="translate(1544.091 261.708)"/><rect class="a" width="30.896" height="3.75" transform="translate(1544.091 270.037)"/></g></svg>