<svg xmlns="http://www.w3.org/2000/svg" width="64" height="64" viewBox="0 0 64 64"><defs><style>.a{fill:#79b2e8;}</style></defs><g transform="translate(-1399.461 -135.899)"><path class="a" d="M1460.8,175.243a13.147,13.147,0,0,0-4.28-3.624,10.189,10.189,0,0,0,1.4-5.16v-4.807a10.255,10.255,0,0,0-15.85-8.589v-9.674a7.5,7.5,0,0,0-7.49-7.49h-16.941v7.566a7.487,7.487,0,0,0,3.2,6.139v3.444a10.254,10.254,0,0,0-15.826,8.6v4.807a10.178,10.178,0,0,0,1.4,5.16,13.157,13.157,0,0,0-4.281,3.623,12.91,12.91,0,0,0-2.664,7.894V199.9h64V183.136a12.907,12.907,0,0,0-2.665-7.893Zm-39.415-35.594h13.191a3.744,3.744,0,0,1,3.74,3.74v3.816h-13.19a3.745,3.745,0,0,1-3.741-3.74Zm16.931,11.306v5.08a6.864,6.864,0,0,1-13.727,0v-5.1c.177.012.356.019.537.019Zm-24.9,45.194h-10.206V183.136a9.329,9.329,0,0,1,5.762-8.586,10.211,10.211,0,0,0,4.444,1.993v19.606Zm0-23.743v.287a6.513,6.513,0,0,1-4.658-6.234v-4.807a6.515,6.515,0,0,1,12.623-2.253,10.588,10.588,0,0,0,1.154,2.392,10.749,10.749,0,0,0-9.119,10.615Zm16.157,23.743h-12.407V172.406a6.994,6.994,0,0,1,5.826-6.89,41.381,41.381,0,0,0,.4,4.57c.863,5.921,2.992,10.809,6.176,14.2Zm-2.82-30.6a10.606,10.606,0,0,0,9.4,0c-.15,4-1.01,10.513-4.7,15.175-3.68-4.656-4.542-11.18-4.695-15.173Zm18.977,30.6h-12.407V184.283c3.183-3.389,5.313-8.28,6.176-14.207a41.626,41.626,0,0,0,.4-4.56,6.994,6.994,0,0,1,5.827,6.89Zm-5.37-34.358a10.572,10.572,0,0,0,1.147-2.37l.021.007a6.515,6.515,0,0,1,12.633,2.224v4.807a6.512,6.512,0,0,1-4.681,6.241v-.294A10.75,10.75,0,0,0,1440.361,161.791Zm19.35,34.358h-10.23v-19.6a10.227,10.227,0,0,0,4.467-2,9.328,9.328,0,0,1,5.763,8.586Z"/></g></svg>