<svg xmlns="http://www.w3.org/2000/svg" width="64" height="64" viewBox="0 0 64 64"><defs><style>.a{fill:#79b2e8;}</style></defs><g transform="translate(-1731.87 -37.042)"><path class="a" d="M1771.817,37.042a24.121,24.121,0,0,0-18.357,39.689l-4.034,4.033-2.919-2.928-12.881,12.919a6.044,6.044,0,0,0,0,8.52,6.008,6.008,0,0,0,8.511,0l12.873-12.911-2.936-2.944,4.02-4.02a24.085,24.085,0,1,0,15.723-42.358Zm-32.336,59.585a2.256,2.256,0,0,1-3.2,0,2.288,2.288,0,0,1,0-3.224l10.225-10.255,3.207,3.216Zm51.1-27.709a20.364,20.364,0,1,1-3.088-20.684,14.653,14.653,0,0,1,2.426,3.756,20.016,20.016,0,0,1,1.851,12.845A24.042,24.042,0,0,1,1790.582,68.918Z"/><path class="a" d="M1771.9,43.115a18.047,18.047,0,1,0,16.944,24.2c.056-.175.119-.348.172-.525.073-.239.154-.475.233-.711A18,18,0,0,0,1771.9,43.115Zm14.3,18.046a14.227,14.227,0,0,1-.579,4l-14.22-.025,1.573-6.269,7.542.087,1.753-6.978h.574A14.227,14.227,0,0,1,1786.192,61.161Zm-28.591,0a14.266,14.266,0,0,1,21.571-12.284l-1.58,6.289-7.542-.086-3.463,13.794,8.016.015c0,.053-.016.1-.016.156a4.983,4.983,0,0,0,3.814,4.831,14.27,14.27,0,0,1-20.8-12.715Z"/></g></svg>