<svg xmlns="http://www.w3.org/2000/svg" width="64" height="64" viewBox="0 0 64 64"><defs><style>.a{fill:#79b2e8;}</style></defs><g transform="translate(-1399.139 -36.033)"><path class="a" d="M1421.51,65.97a10.047,10.047,0,0,0,7.12-2.99,9.994,9.994,0,0,0,.57-13.41,10.691,10.691,0,0,0-2.35-2.05,10,10,0,1,0-5.34,18.45Zm0-16.25a6.278,6.278,0,0,1,5.97,4.41,6.208,6.208,0,0,1,.28,1.84,6.239,6.239,0,0,1-2.9,5.27,6.177,6.177,0,0,1-3.35.98,6.25,6.25,0,0,1,0-12.5Z" transform="translate(-0.237)"/><path class="a" d="M1457.921,80.737l-1.957-6.3-5.353-3.494c3.146-5.348,4.755-10.23,4.755-14.539a15.639,15.639,0,0,0-15.519-15.726,14.845,14.845,0,0,0-4.974.84,18.591,18.591,0,0,0-13.178-5.486,18.947,18.947,0,0,0-18.8,19.058c0,4.862,1.682,10.325,5,16.3l-2.379,3.3,1.126,4.023-5.373,4.244-2.135,8.9,4.7,5.669,9.615-1.74,10.875,3.526,10.947-2.866,14.131,3.594,11.007-5.854,2.729-8.855Zm-18.073-37a12.6,12.6,0,0,1,12.5,12.672c0,4.548-2.243,10.192-6.476,16.34-.312.455-.635.9-.946,1.335-1.014,1.393-2,2.639-2.887,3.706-.868,1.038-1.629,1.888-2.195,2.511-.565-.613-1.326-1.473-2.194-2.511-.888-1.057-1.873-2.313-2.887-3.706l-.468-.653a50.225,50.225,0,0,0,4.086-8.155,7.988,7.988,0,0,0,1.463.139,8.161,8.161,0,0,0,0-16.32c-.107,0-.214,0-.312.01a18.708,18.708,0,0,0-2.517-5.042A12.147,12.147,0,0,1,1439.848,43.733Zm.429,8.432a5.108,5.108,0,0,1-.429,10.191,3.86,3.86,0,0,1-.468-.029,25.918,25.918,0,0,0,1.111-7.236A20.589,20.589,0,0,0,1440.277,52.165ZM1421.7,39.74a14.953,14.953,0,0,1,9.647,3.529,15.356,15.356,0,0,1,2.155,2.224,15.18,15.18,0,0,1,2.506,4.6,14.872,14.872,0,0,1,.722,3.173,16.108,16.108,0,0,1,.107,1.829,21.593,21.593,0,0,1-.781,5.506,31.04,31.04,0,0,1-1.034,3.183,45.229,45.229,0,0,1-2.965,6.227c-.546.949-1.122,1.918-1.755,2.9-.244.4-.5.781-.771,1.177-.166.266-.341.523-.527.79-.7,1.028-1.414,2-2.107,2.916-2.077,2.729-3.99,4.913-5.2,6.228-1.209-1.315-3.121-3.49-5.2-6.228-.693-.909-1.405-1.888-2.107-2.916-.185-.267-.361-.524-.527-.79-4.78-7.137-7.306-13.691-7.306-18.989A15.263,15.263,0,0,1,1421.7,39.74Zm35.674,51.869-8.43,4.484-13.682-3.48-10.825,2.836L1413.7,91.968l-8.425,1.524-2.145-2.589,1.4-5.824,6.311-4.985-1.312-4.683.438-.606,1.977,2.981a84.8,84.8,0,0,0,9.753,11.506,83.6,83.6,0,0,0,9.754-11.506l1.073-1.621c.409.564.819,1.107,1.229,1.621a71.715,71.715,0,0,0,6.1,6.86,69.626,69.626,0,0,0,6.106-6.86c.634-.82,1.278-1.69,1.951-2.639l.711-1.067.014-.02,4.243,2.769,1.871,6.021,4.191,3.684Z" transform="translate(0)"/></g></svg>