<svg xmlns="http://www.w3.org/2000/svg" width="64" height="64" viewBox="0 0 64 64"><defs><style>.a{fill:#79b2e8;}</style></defs><g transform="translate(-1410.103 -235.91)"><path class="a" d="M1465.113,252.12a9.151,9.151,0,0,0-1.66.15l-6.07-16.36h-5.26v3.01h3.17l1.04,2.81h-10.2l-2.04,5.92h-14.05v3.01h6.92l4.67,7.03H1440a8.975,8.975,0,0,0-16.6-.02h-4.06l-3.52,14.7h-4.04l-1.68,20.69h3.28v1.84a5.019,5.019,0,0,0,5.01,5.01h.58a5.01,5.01,0,0,0,5-5.01v-1.84h18.62v1.84a5.01,5.01,0,0,0,5,5.01h.58a5.019,5.019,0,0,0,5.01-5.01v-1.84h3.11l-1.96-20.69h-3.74l-1.94-9.77h2.9l7.87-12.53,1.21,3.25a8.984,8.984,0,1,0,4.48-1.2Zm-33.41,3.01a5.97,5.97,0,0,1,4.9,2.56l-9.79-.01A5.941,5.941,0,0,1,1431.7,255.13Zm-11.48,39.77a1.272,1.272,0,0,1-1.25,1.26h-.58a1.281,1.281,0,0,1-1.26-1.26v-1.84h3.09Zm17.4-5.59h-8.87v-3.52h8.87Zm11.81,5.59a1.281,1.281,0,0,1-1.26,1.26h-.58a1.272,1.272,0,0,1-1.25-1.26v-1.84h3.09Zm1.49-18.78,1.1,11.65a.01.01,0,0,1,.01.01l.14,1.53h-10.8v-7.27H1425v7.27h-10.84l.09-1.17.98-12.02Zm-4.15-3.75-27.09-.02,2.62-10.93h3.45l5.6.01,13.25.02.23,1.15Zm3.11-12.78h-1.83l-.37-1.89h-2.44l-4.67-7.04h14.92Zm7.51-11.94h-10.12l1.01-2.91h9.16l.66,1.77Zm7.72,19.42a5.963,5.963,0,0,1-3.41-10.86l2,5.41,2.83-1.04-2.01-5.42a5.683,5.683,0,0,1,.59-.03,5.97,5.97,0,1,1,0,11.94Z"/><rect class="a" width="3.011" height="4.366" transform="matrix(0.931, -0.365, 0.365, 0.931, 1461.097, 243.058)"/><rect class="a" width="3.14" height="3.14" transform="translate(1417.109 279.19)"/><rect class="a" width="3.14" height="3.14" transform="translate(1446.309 279.19)"/><path class="a" d="M1429.043,262.19v3.75h8.28v-3.75h-8.28Z"/></g></svg>