<svg xmlns="http://www.w3.org/2000/svg" width="96" height="96" viewBox="0 0 96 96"><defs><style>.a{fill:#79b2e8;}</style></defs><path class="a" d="M1579.5,365.75h-24.99v18.525h24.99Zm-5.625,12.9h-13.74v-7.275h13.74Z" transform="translate(-1502.865 -320.555)"/><path class="a" d="M1616.08,382.765V363.34l-48-27.72-16.56,9.555V335.62h-18.54v20.265l-12.9,7.455v19.425l7.53-4.335v34.65h-7.53v18.54h96V413.08h-7.53V378.43Zm-77.475-41.52h7.29v7.185l-7.29,4.2Zm-12.9,84.75V418.7h6.42a12.546,12.546,0,0,0-.54,3.69v3.6Zm13.74-45.18v12.81a11.291,11.291,0,0,0-6.21,8.73v-27.18l34.845-20.115,34.845,20.115v37.9h-38.49V380.815Zm-.675,22.9a5.439,5.439,0,0,1,.675-2.64,5.805,5.805,0,0,1,5.115-3.045c.18,0,.345.015.51.03a5.668,5.668,0,0,1,0,11.31c-.165.015-.33.03-.51.03a5.805,5.805,0,0,1-5.115-3.045A5.439,5.439,0,0,1,1538.77,403.72Zm13.575,8.28a11.278,11.278,0,0,0-7.275-19.56v-6h13.74v26.64h-5.22A12.127,12.127,0,0,0,1552.345,412Zm-19.11,1.08v-7.95a11.34,11.34,0,0,0,3.555,6.87,12.127,12.127,0,0,0-1.245,1.08Zm3.975,12.915v-3.6a7.2,7.2,0,0,1,1.005-3.69,7.35,7.35,0,0,1,13.71,3.69v3.6Zm73.245-7.29v7.29h-52.9v-3.6a12.546,12.546,0,0,0-.54-3.69Zm-42.375-70.14L1525.7,373.03v-6.45l42.375-24.465,42.375,24.465v6.45Z" transform="translate(-1520.08 -335.62)"/></svg>