<svg xmlns="http://www.w3.org/2000/svg" width="96" height="96" viewBox="0 0 96 96"><defs><style>.a{fill:#79b2e8;}</style></defs><g transform="translate(-1281.776 -336.954)"><g transform="translate(1281.776 336.954)"><path class="a" d="M1285.576,383.951h5.625V350.99h17.418v-5.625h-23.043Z" transform="translate(-1279.876 -332.749)"/><path class="a" d="M1344.208,383.951h5.625V345.365h-23.605v5.625h17.98Z" transform="translate(-1259.551 -332.749)"/><path class="a" d="M1302.911,385.146h32.7v5.625h-32.7Z" transform="translate(-1271.209 -312.858)"/><path class="a" d="M1334,373.212a15.324,15.324,0,0,0-6.81-12.738,13.211,13.211,0,0,0,4.884-10.243,13.4,13.4,0,0,0-26.8,0,13.211,13.211,0,0,0,4.884,10.243,15.326,15.326,0,0,0-6.81,12.738v17.326H1334Zm-15.329-30.633a7.653,7.653,0,1,1-7.778,7.651A7.724,7.724,0,0,1,1318.671,342.579Zm9.7,42.334h-19.407v-11.7a9.7,9.7,0,0,1,19.407,0Z" transform="translate(-1270.993 -336.954)"/><path class="a" d="M1302.53,394.4a11.243,11.243,0,0,0,3.642-8.28,11.415,11.415,0,0,0-22.83,0,11.241,11.241,0,0,0,3.642,8.28,12.972,12.972,0,0,0-5.208,10.391v9.232h25.962v-9.232A12.972,12.972,0,0,0,1302.53,394.4Zm-7.773-13.968a5.69,5.69,0,1,1-5.79,5.688A5.746,5.746,0,0,1,1294.757,380.435Zm7.356,27.966H1287.4v-3.607a7.356,7.356,0,0,1,14.712,0V408.4Z" transform="translate(-1281.776 -318.026)"/><path class="a" d="M1349.221,394.4a11.243,11.243,0,0,0,3.644-8.28,11.416,11.416,0,0,0-22.832,0,11.238,11.238,0,0,0,3.644,8.28,12.968,12.968,0,0,0-5.208,10.391v9.232h25.96v-9.232A12.969,12.969,0,0,0,1349.221,394.4Zm-7.771-13.968a5.69,5.69,0,1,1-5.792,5.688A5.747,5.747,0,0,1,1341.45,380.435ZM1348.8,408.4h-14.71v-3.607a7.355,7.355,0,1,1,14.71,0Z" transform="translate(-1258.43 -318.026)"/></g></g></svg>