<svg xmlns="http://www.w3.org/2000/svg" width="94" height="94" viewBox="0 0 94 94"><defs><style>.a{fill:#79b2e8;}</style></defs><g transform="translate(-1631.56 -236.258)"><g transform="translate(1631.56 236.258)"><path class="a" d="M1640.328,260.883h11.028v5.508h-11.028Z" transform="translate(-1627.45 -224.715)"/><path class="a" d="M1654.733,260.883h11.027v5.508h-11.027Z" transform="translate(-1620.698 -224.715)"/><path class="a" d="M1669.138,260.883h11.027v5.508h-11.027Z" transform="translate(-1613.945 -224.715)"/><path class="a" d="M1640.328,270.883h11.028v5.508h-11.028Z" transform="translate(-1627.45 -220.028)"/><path class="a" d="M1654.733,270.883h11.027v5.508h-11.027Z" transform="translate(-1620.698 -220.028)"/><path class="a" d="M1640.328,281.008h11.028v5.508h-11.028Z" transform="translate(-1627.45 -215.281)"/><path class="a" d="M1654.733,281.008h11.027v5.508h-11.027Z" transform="translate(-1620.698 -215.281)"/><path class="a" d="M1710.658,290.255V242.769h-12.885v-6.511h-5.508v6.511h-10.433v-6.511h-5.508v6.511h-10.432v-6.511h-5.508v6.511h-10.431v-6.511h-5.508v6.511H1631.56v78.309H1688.1a20.4,20.4,0,1,0,22.563-30.823Zm-66.213-41.978v6.849h5.508v-6.849h10.431v6.849h5.508v-6.849h10.432v6.849h5.508v-6.849h10.433v6.849h5.508v-6.849h7.377V260.6h-68.082v-12.32Zm-7.377,67.294V266.1h68.082v23.4h-.006a20.379,20.379,0,0,0-19.6,26.07Zm68.077,9.18a14.871,14.871,0,1,1,14.908-14.871,14.906,14.906,0,0,1-14.908,14.871Z" transform="translate(-1631.56 -236.258)"/><path class="a" d="M1685.293,280.157h-5.508v11.9h11.9v-5.508h-6.392Z" transform="translate(-1608.955 -215.68)"/></g></g></svg>