<svg xmlns="http://www.w3.org/2000/svg" width="65.239" height="65.24" viewBox="0 0 65.239 65.24"><defs><style>.a{fill:#0055a6;}</style></defs><path class="a" d="M1648.559,482.678v-2.129h3.728V460.056h-27.7v20.493h3.73v2.129h-5.983V475.22h-12.787v7.458h-3.728V525.3h65.239V482.678Zm-10.122,33.56a12.251,12.251,0,1,1,12.251-12.251A12.328,12.328,0,0,1,1638.437,516.238Zm17.58-12.251a17.589,17.589,0,0,0-10.3-15.98h20.007v31.96h-20.007A17.59,17.59,0,0,0,1656.017,503.987Zm-35.284,0a17.583,17.583,0,0,0,10.369,15.98h-19.957v-31.96H1631.1A17.584,17.584,0,0,0,1620.733,503.987Zm22.5-23.438v2.129h-9.587v-2.129Zm3.729-15.165v9.836h-17.045v-9.836ZM1617,480.549v2.129h-2.129v-2.129Z" transform="translate(-1605.817 -460.056)"/><path class="a" d="M1660.934,490.136a2.665,2.665,0,1,0,2.665,2.664A2.667,2.667,0,0,0,1660.934,490.136Z" transform="translate(-1605.817 -460.056)"/><rect class="a" width="12.786" height="5.329" transform="translate(26.226 7.582)"/><path class="a" d="M1638.437,493.865a10.122,10.122,0,1,0,10.122,10.122A10.133,10.133,0,0,0,1638.437,493.865Zm0,14.915a4.794,4.794,0,1,1,4.793-4.793A4.8,4.8,0,0,1,1638.437,508.78Z" transform="translate(-1605.817 -460.056)"/></svg>