<svg xmlns="http://www.w3.org/2000/svg" width="63.64" height="86.661" viewBox="0 0 63.64 86.661"><defs><style>.a{fill:#0055a6;}</style></defs><g transform="translate(-1015 -9308)"><g transform="translate(1015 9308)"><path class="a" d="M1653.062,560.617h-29.251v4.833h-17.2v81.828h63.64V565.45h-17.194Zm-24.329,5.078h19.407v5.085h-19.407Zm36.6,4.833V642.2h-53.8V570.528h12.273v5.33h29.251v-5.33Z" transform="translate(-1606.616 -560.617)"/><path class="a" d="M1626.079,617.742h24.715v5.078h-24.715Z" transform="translate(-1606.616 -560.617)"/><path class="a" d="M1622.788,607.671H1654.1v5.078h-31.312Z" transform="translate(-1606.616 -560.617)"/><path class="a" d="M1633.5,627.9h9.869v5.078H1633.5Z" transform="translate(-1606.616 -560.617)"/><path class="a" d="M1647.746,588.551l-3.48-3.591-7.96,8.212-3.684-3.8-3.48,3.591,7.164,7.392Z" transform="translate(-1606.616 -560.617)"/></g></g></svg>