<svg xmlns="http://www.w3.org/2000/svg" width="62.976" height="91.828" viewBox="0 0 62.976 91.828"><defs><style>.a{fill:#0055a6;}</style></defs><path class="a" d="M1466.453,635.765l-9.653-20.62-4.709,2.189-3-6.439c22.278-12.033,19.69-45.923-4.4-54.47a30.113,30.113,0,0,0-38.579,17.918c-8.888,23.8,15.24,47.465,38.73,38.506l3,6.45-4.677,2.178,9.664,20.63C1457.244,650.987,1470.459,644.848,1466.453,635.765Zm-40.716-27.294c-22.37-8.021-22-40.178.193-47.742,19.305-7.034,39.058,11.773,32.76,31.511a.065.065,0,0,1-.011.043A25.43,25.43,0,0,1,1425.736,608.472Zm36.584,31.437a2.866,2.866,0,0,1-5.254.214l-7.678-16.37,5.147-2.4,7.688,16.4A2.9,2.9,0,0,1,1462.32,639.908Z" transform="translate(-1404.224 -554.603)"/><path class="a" d="M1455.136,591.789a22.633,22.633,0,0,0-8.009-25.959c-11.734-8.8-29.541-3.313-34.352,10.55C1403.576,604.812,1443.948,619.423,1455.136,591.789Zm-3.481-9.9a17.665,17.665,0,0,1-.256,5.948l-19.4-.032,2.114-8.425,10.123.107,2.093-8.265A17.8,17.8,0,0,1,1451.655,581.89Zm-23.8,18.965-.683-.256c-10.439-4.01-14.45-17.941-7.763-26.856a.237.237,0,0,1,.053-.064c.224-.31.449-.619.694-.908v-.011c.245-.3.5-.587.758-.865,0-.011.032-.021.032-.021a17.9,17.9,0,0,1,19.231-4.517,11.912,11.912,0,0,1,1.73.747l-1.58,6.311-10.144-.128-4.645,18.548,10.774.011a6.653,6.653,0,0,0,6.225,6.888A17.813,17.813,0,0,1,1427.854,600.855Z" transform="translate(-1403.735 -554.13)"/></svg>