<svg xmlns="http://www.w3.org/2000/svg" width="73" height="95" viewBox="0 0 73 95"><defs><style>.a{fill:#0055a6;}</style></defs><rect class="a" width="41.535" height="5.614" transform="translate(11.229 32.466)"/><rect class="a" width="41.535" height="5.614" transform="translate(11.229 43.564)"/><rect class="a" width="32.31" height="5.614" transform="translate(11.147 54.323)"/><rect class="a" width="41.538" height="5.614" transform="translate(11.226 21.359)"/><rect class="a" width="18.048" height="5.614" transform="translate(11.075 65.774)"/><path class="a" d="M1579.884,521.014c2.853-3.958-1.533-7.172-7.095-7.385a3.417,3.417,0,0,0-.54-3.82,3.477,3.477,0,0,0,0-4.655c1.6-1.853.959-4.346-1.168-5.7V442.8h-16.959v-4.819H1524.74V442.8h-16.96v82.058h33.5c.008,6.464,16.644,6.622,17.392.448a12.5,12.5,0,0,0,5.045,1.179c-3.471,9.2,22.011,8.357,16.166-.821A3.479,3.479,0,0,0,1579.884,521.014Zm-2.1,6.967c0,.746-2.171,2.1-5.718,2.1-3.662-.085-6.622-1.393-5.375-2.685a14.67,14.67,0,0,0,10.748,0A.9.9,0,0,1,1577.788,527.981Zm-33.515-17.128c0-.746,2.171-2.1,5.718-2.1,4.932.129,7.841,2.235,3.637,3.656h-.015C1551.1,513.227,1545.713,513.425,1544.273,510.853Zm14.445-8.041c.3-2.507,10.659-2.9,11.436,0C1568.69,505.706,1560.1,505.645,1558.718,502.812Zm-14.1,13.293c-.457-.437-.463-.765.015-1.194a10.834,10.834,0,0,0,1.706.6h.015a15.547,15.547,0,0,0,7.275,0h.015a11.029,11.029,0,0,0,1.721-.6c1.056,1.044-.631,1.681-1.721,2.134C1551.183,517.952,1546.631,517.844,1544.618,516.1Zm14.1-8.638a.9.9,0,0,1,.344-.582,14.382,14.382,0,0,0,10.747,0c1.013,1.044-.655,1.684-1.736,2.134h-.015a12.368,12.368,0,0,1-7.245,0h-.015C1559.771,508.6,1558.942,508.289,1558.718,507.466Zm11.436,4.655c-.225.824-1.053,1.129-2.08,1.552h-.015a12.36,12.36,0,0,1-7.245,0h-.015c-1.09-.452-2.748-1.09-1.736-2.149a14.392,14.392,0,0,0,10.747,0A.93.93,0,0,1,1570.154,512.121Zm-11.091,5.253c-.458-.457-.458-.738,0-1.194a12.509,12.509,0,0,0,4.655,1,3.092,3.092,0,0,0-.345,1.656,10.36,10.36,0,0,1-2.56-.508h-.015A4.926,4.926,0,0,1,1559.063,517.373Zm16.66,7.5a12.177,12.177,0,0,1-7.306,0c.016,0,.046-.015.06-.015h-.12c-.77-.307-1.814-.748-1.99-1.477-.055-.2.1-.4.328-.641a11.263,11.263,0,0,0,3.429.895,13.981,13.981,0,0,0,7.319-.895C1578.445,523.79,1576.815,524.422,1575.723,524.877Zm1.721-5.61c-2.41,1.916-6.8,1.908-9.67.7-.769-.375-2.062-1.122-1.017-1.94,1.475-1.215,4.373-1.588,6.376-1.4C1576.2,516.971,1578.613,518.071,1577.444,519.267Zm-33.171.88a.96.96,0,0,1,.344-.6,10.627,10.627,0,0,0,1.721.612h.015a15.578,15.578,0,0,0,7.275,0h.015a9.534,9.534,0,0,0,1.736-.612c1.01,1.065-.643,1.691-1.736,2.148C1551.119,522.549,1545.728,522.738,1544.273,520.147Zm14.445,1.284a.929.929,0,0,1,.344-.6,12.644,12.644,0,0,0,4.655,1,3.051,3.051,0,0,0-.345,1.657C1560.454,523.251,1558.718,522.087,1558.718,521.431Zm-28.59-77.866h18.606v4.55h-18.606Zm-16.96,75.717v-70.9h11.572v5.311h29.382v-5.311h11.585v49.4c-5.691-.631-12.507,2.759-9.085,7.371a3.572,3.572,0,0,0-.853,1.82c-4.7-2.959-18.176-.251-13.577,6.206a3.445,3.445,0,0,0,0,4.655,3.573,3.573,0,0,0-.794,1.447Zm36.823,7.624c-3.457,0-5.613-1.3-5.7-2.044-.055-.2.095-.4.33-.656a14.194,14.194,0,0,0,10.762,0c.235.251.385.451.33.656C1555.619,525.608,1553.449,526.906,1549.991,526.906Z" transform="translate(-1507.78 -437.985)"/></svg>