<svg xmlns="http://www.w3.org/2000/svg" width="64" height="80.541" viewBox="0 0 64 80.541"><defs><style>.a{fill:#0055a6;}</style></defs><path class="a" d="M1494.78,562.942v10.652H1491.2V578.3h3.577v8.922H1491.2v4.709h3.577v8.922H1491.2v4.71h3.577v8.922H1491.2v4.71h3.577v8.921H1491.2v4.71h3.577v10.652H1555.2V562.942Zm56.356,75.832h-52.288v-5.943h3.577v-4.71h-3.577V619.2h3.577v-4.71h-3.577v-8.922h3.577v-4.71h-3.577v-8.922h3.577v-4.71h-3.577V578.3h3.577v-4.711h-3.577v-5.943h52.288Z" transform="translate(-1491.203 -562.942)"/><path class="a" d="M1535.932,582.755h13.17v4.709h-13.17Z" transform="translate(-1496.701 -564.38)"/><path class="a" d="M1535.932,603.839h13.17v4.711h-13.17Z" transform="translate(-1496.701 -565.91)"/><path class="a" d="M1535.932,626.588h13.17v4.71h-13.17Z" transform="translate(-1496.701 -567.561)"/><path class="a" d="M1526.633,580.29l-2.872-3.331-6.568,7.617-3.04-3.525-2.872,3.331,5.912,6.856Z" transform="translate(-1493.67 -563.959)"/><path class="a" d="M1526.633,601.687l-2.872-3.331-6.568,7.618-3.04-3.525-2.872,3.33,5.912,6.856Z" transform="translate(-1493.67 -565.512)"/><path class="a" d="M1526.633,623.083l-2.872-3.33-6.568,7.618-3.04-3.526-2.872,3.33,5.912,6.857Z" transform="translate(-1493.67 -567.065)"/></svg>