<svg xmlns="http://www.w3.org/2000/svg" viewBox="0 0 981.8 193.4"><defs><style>.cls-1{fill:#2156a2;}.cls-2{fill:#494947;}</style></defs><g id="Layer_2" data-name="Layer 2"><g id="Layer_1-2" data-name="Layer 1"><path class="cls-1" d="M250.41,87.63c9.85,0,14.28,1.46,19.2,3.17V48.65a56,56,0,0,0-14.28-1.95c-17.72,0-28.06,8.29-35.94,23.4h-.49V49.87H172.13v95.19h48.74V125.89C220.87,98.84,231.21,87.63,250.41,87.63ZM496.33,46.7c-15,0-31.26,1.46-43.57,7.31-12.55,5.85-21.42,16.33-22.15,33.7H475.9c.25-4.94,3.2-12.49,18.22-12.49,7.88,0,16,3.16,16,11.7,0,8-6.77,9.63-13.41,10.85-24.87,4.63-72,2.32-72,43.5,0,1.3.06,2.56.16,3.79h52.49a10.05,10.05,0,0,1-2.93-6.74c0-8.53,5.67-11.21,16.5-13.65,6.64-1.46,13.29-3.17,19.2-6.09v11.7c-.37,6.56-2.7,11.49-6.32,14.78h53.09V96.18C556.89,71.8,557.38,46.7,496.33,46.7Zm483.79,86.21H934.29c-2.23,4-5,9.06-9.65,12.15h50.73A50.41,50.41,0,0,0,980.12,132.91Zm-129.55-83H795.43l-31,36.56V2.34H715.67V145.06h50.1L764.25,139l8.62-9.26,10.54,15.32H839.1L805,97.64Zm-192-3c-19.45,0-32.49,6.58-41.6,19.26h-.5V50h-47v95.05h48.74V109.17c0-20.23,11.08-24.37,19.45-24.37,14.27,0,16,10.23,16,24.86v35.4h48.74V89.74C702.38,60.74,681.45,46.84,658.56,46.84ZM902,145.06H850.35a56.52,56.52,0,0,1-9.62-31.58c0-36.8,28.08-66.78,68.45-66.78,50.71,0,72.62,28,72.62,76.26H887.65C888.49,133.43,893.89,141.18,902,145.06ZM887.5,98.86H934c0-11.7-8.86-21.21-21.42-21.21C898.09,77.65,889.72,85.21,887.5,98.86ZM418.71,112.51a86,86,0,0,1-6.34,32.55H279.7V2.34h48.89V63.76h.49C336.49,53,349.58,46.7,364.14,46.7,407.1,46.7,418.71,82.77,418.71,112.51ZM369.82,112c0-14.87-3.95-30.42-21.48-30.42S326.86,97.13,326.86,112c0,15.11,3.95,31.44,21.48,31.44S369.82,127.11,369.82,112Zm-209.56-2.64c0,48-26.34,70-80,70S0,157.36,0,109.36V2.19H54.16V96.48c0,17.7,0,39.76,26.34,39.76,25.6,0,25.6-22.06,25.6-39.76V2.19h54.16Z"/><path class="cls-2" d="M188.92,174.41l-5.29,6.29v12.05H172.27V150h11.36v19l15.6-19h12.63l-14.81,17.37,15.6,25.4H199.76ZM230,158.6v9.07h18v8.62H230v16.46H218.6V150h33.91v8.62Zm64.64,25.73v8.42H257.2v-8l24.39-26.31H257.66V150h36.16v8l-24.26,26.31Zm29.28-8.69H299.7v-9h24.19Zm36.91-24.49a23.27,23.27,0,0,1,8.17,5.9l-6.42,7.25a14.06,14.06,0,0,0-5.12-4.76,15.18,15.18,0,0,0-7-1.52,9.89,9.89,0,0,0-5.28,1.17,3.52,3.52,0,0,0-1.86,3.11,3,3,0,0,0,2,2.62,25.58,25.58,0,0,0,6.64,1.85q9,1.62,12.92,4.73a10.58,10.58,0,0,1,3.87,8.75,11,11,0,0,1-2.38,7.06,14.66,14.66,0,0,1-6.58,4.53,27.08,27.08,0,0,1-9.48,1.56,33.93,33.93,0,0,1-12-1.78,20.87,20.87,0,0,1-8-5.48l5.81-7.77a14.68,14.68,0,0,0,5.82,4.92,19.3,19.3,0,0,0,7.8,1.43,11.58,11.58,0,0,0,5.45-1,3.15,3.15,0,0,0,1.82-2.88q0-1.49-1.95-2.43a28,28,0,0,0-6.51-1.78,49.76,49.76,0,0,1-9.29-2.63,13.54,13.54,0,0,1-5.68-4.11,10.42,10.42,0,0,1-2-6.61,12.22,12.22,0,0,1,2.22-7.19,14.34,14.34,0,0,1,6.48-5,26,26,0,0,1,10.08-1.78A27.74,27.74,0,0,1,360.8,151.15ZM401,183.1H385.89l-3,9.65H371.41L386.75,150h13.61l15.27,42.77h-11.7Zm-2.38-7.58-3.18-10.24-1.91-6.74h-.13l-1.79,6.67-3.3,10.31Zm52.81,14.67a22.26,22.26,0,0,1-12.23,3.21,23.54,23.54,0,0,1-11.43-2.62,17.74,17.74,0,0,1-7.41-7.59,28.42,28.42,0,0,1,0-23.62,17.74,17.74,0,0,1,7.41-7.61,26.16,26.16,0,0,1,23.46.32,14.13,14.13,0,0,1,6.54,8.85l-10,4c-.62-2.59-1.56-4.4-2.84-5.44a8.37,8.37,0,0,0-5.42-1.56,8.91,8.91,0,0,0-7.47,3.41q-2.64,3.39-2.64,9.88t2.54,9.88a8.65,8.65,0,0,0,7.37,3.4,7.87,7.87,0,0,0,8.66-7l10.31,2.85A16.24,16.24,0,0,1,451.39,190.19ZM504.53,150v42.77H493.16V175.52H476.5v17.23H465.14V150H476.5V166.9h16.66V150Zm34.63,42.77H525.81L510.28,150h12l8,25.86,2.38,8.42,2.31-8.29,8.13-26h11.57Zm56.05-8.62v8.62H560.38V150h34v8.62h-22.6v8.69h18v8.1h-18v8.74Zm25.38-7h-6.81v15.62H602.61V150h20.82q7.94,0,12.2,3.5t4.26,10.11a13.2,13.2,0,0,1-2.18,7.78,12.69,12.69,0,0,1-6.34,4.6l11.1,16.78H629.91Zm-6.81-7.9h7.74q3.63,0,5.29-1.3a6,6,0,0,0,0-8.23q-1.66-1.29-5.29-1.29h-7.74Zm62.56-18.08a23.27,23.27,0,0,1,8.17,5.9l-6.41,7.25a14.17,14.17,0,0,0-5.13-4.76,15.18,15.18,0,0,0-7-1.52,9.89,9.89,0,0,0-5.28,1.17,3.51,3.51,0,0,0-1.85,3.11,3,3,0,0,0,2,2.62,25.58,25.58,0,0,0,6.64,1.85q9,1.62,12.92,4.73a10.58,10.58,0,0,1,3.87,8.75,11,11,0,0,1-2.38,7.06,14.66,14.66,0,0,1-6.58,4.53,27.08,27.08,0,0,1-9.48,1.56,33.93,33.93,0,0,1-12-1.78,20.87,20.87,0,0,1-8-5.48l5.82-7.77a14.59,14.59,0,0,0,5.81,4.92,19.3,19.3,0,0,0,7.8,1.43,11.58,11.58,0,0,0,5.45-1,3.13,3.13,0,0,0,1.82-2.88q0-1.49-1.95-2.43a28,28,0,0,0-6.51-1.78,49.41,49.41,0,0,1-9.28-2.63,13.51,13.51,0,0,1-5.69-4.11,10.48,10.48,0,0,1-2-6.61,12.22,12.22,0,0,1,2.22-7.19,14.39,14.39,0,0,1,6.48-5,26,26,0,0,1,10.08-1.78A27.74,27.74,0,0,1,676.34,151.15Zm44.84,7.45h-7.72v34.15H702.09V158.6H687.81V150h33.37Zm32.6,24.5H738.71l-3,9.65H724.23L739.57,150h13.61l15.27,42.77h-11.7Zm-21.12-31.79a5.18,5.18,0,0,1,0,7.33,6.17,6.17,0,0,1-4.17,1.32,5.89,5.89,0,0,1-4.06-1.32,5.25,5.25,0,0,1,0-7.33,5.89,5.89,0,0,1,4.06-1.33A6.17,6.17,0,0,1,732.66,151.31Zm18.74,24.21-3.18-10.24-1.91-6.74h-.13l-1.79,6.67-3.3,10.31Zm16.29-24.22a5.17,5.17,0,0,1,0,7.32,6.08,6.08,0,0,1-4.16,1.33,5.89,5.89,0,0,1-4.07-1.33,5.27,5.27,0,0,1,0-7.32,5.94,5.94,0,0,1,4.07-1.33A6.13,6.13,0,0,1,767.69,151.3Zm45.7,41.45H800.77l-13.55-23.13-3.3-6.48h-.07l.26,8v21.58h-10V150h12.62l13.55,23.14,3.31,6.48h.06l-.26-8V150h10Zm44.39-37.23q5.44,5.55,5.45,15.85t-5.45,15.84q-5.46,5.55-15.7,5.54H823.57V150h18.51Q852.33,150,857.78,155.52ZM849,181.09q2.58-3.24,2.58-9.72T849,161.65q-2.58-3.24-8.06-3.24h-6v25.92h6Q846.44,184.33,849,181.09Zm33.91,11.66H871.56V150h11.37Zm49.13-23.13v23.13h-7.93l-.34-5.05q-3.76,5.7-12.49,5.7a21.25,21.25,0,0,1-10.54-2.56,17.74,17.74,0,0,1-7.17-7.52A25.42,25.42,0,0,1,891,171.43a24.79,24.79,0,0,1,2.64-11.82,18.28,18.28,0,0,1,7.54-7.62,23.91,23.91,0,0,1,11.57-2.65q7.47,0,12,2.59a17.64,17.64,0,0,1,7.2,8.36l-10.51,4.08a7.91,7.91,0,0,0-3-4.73,9.09,9.09,0,0,0-5.42-1.56,9.27,9.27,0,0,0-7.7,3.37q-2.68,3.38-2.68,9.92,0,13.47,10.71,13.48a10.77,10.77,0,0,0,6.51-1.82,6.11,6.11,0,0,0,2.48-5.25v-.65H911.57v-7.51Zm43.88,14.51v8.62H941.11V150h34v8.62h-22.6v8.69h18v8.1h-18v8.74Z"/><path class="cls-2" d="M335.82,31.51l4.39-4.71c1.44,2.32,3.9,3.48,7.4,3.48a6.66,6.66,0,0,0,2.75-.46c.67-.31,1-.73,1-1.25s-.34-.86-1-1.2a15,15,0,0,0-3.53-1q-5.6-1.08-8-2.94a6,6,0,0,1-2.37-5,6.67,6.67,0,0,1,1.35-4,9.37,9.37,0,0,1,4.07-3,17,17,0,0,1,6.62-1.15,18.12,18.12,0,0,1,7,1.15A10.46,10.46,0,0,1,360,15l-4.4,4.21a7.33,7.33,0,0,0-2.85-2.5,9.18,9.18,0,0,0-3.95-.78,6,6,0,0,0-2.8.54,1.57,1.57,0,0,0-1,1.32c0,.49.34.9,1,1.25a15,15,0,0,0,3.57,1c3.67.62,6.31,1.55,7.92,2.77a6,6,0,0,1,2.43,5,6.89,6.89,0,0,1-3.05,5.81q-3,2.23-8.85,2.23Q339.42,35.82,335.82,31.51Zm52.93-6H371.7a5.33,5.33,0,0,0,1.73,3.38A5.38,5.38,0,0,0,377,29.94a5.9,5.9,0,0,0,3-.69,3.33,3.33,0,0,0,1.58-2l6.9,2.16a8.3,8.3,0,0,1-4.08,4.78A15.42,15.42,0,0,1,377,35.82c-4.37,0-7.7-1.11-10-3.33s-3.47-5.36-3.47-9.41,1.13-7.19,3.39-9.41,5.48-3.33,9.65-3.33,7.12,1.09,9.27,3.26S389,18.82,389,22.74A12.86,12.86,0,0,1,388.75,25.48ZM371.65,21h9.4q-.6-4.8-4.6-4.8T371.65,21ZM394.72,7a3.64,3.64,0,0,1-1.18-3A3.68,3.68,0,0,1,394.72,1a7.88,7.88,0,0,1,7.54,0A3.68,3.68,0,0,1,403.44,4a3.64,3.64,0,0,1-1.18,3,7.88,7.88,0,0,1-7.54,0Zm8,28.3h-8.5V10.83h8.5ZM427.43,34a10.68,10.68,0,0,1-3.18,1.34,14.61,14.61,0,0,1-3.87.52q-4.44,0-6.8-1.86c-1.56-1.24-2.36-3.24-2.39-6V16.76h-4.3V10.83h4.3V5.34L419.68,3v7.79h7.5v5.93h-7.5v9.85q0,3.29,3.3,3.28a6.13,6.13,0,0,0,3.6-1.08ZM461.12,3V35.33h-8.3V11.27a16,16,0,0,1-7.8,4.12l-.8-7a16,16,0,0,0,5.67-2A12.58,12.58,0,0,0,454.27,3Zm29.21,3.82q3.53,4.32,3.52,12.55,0,8.41-3.62,12.44t-10.37,4a15.06,15.06,0,0,1-7.57-1.72,10.47,10.47,0,0,1-4.53-5.34l7.7-3a5.37,5.37,0,0,0,1.47,2.75,4.47,4.47,0,0,0,3.08.93q6.09,0,6.09-9.16V19.5H486a5.26,5.26,0,0,1-2.84,3.16,11.07,11.07,0,0,1-5.05,1.1,11.5,11.5,0,0,1-5.4-1.27,9.71,9.71,0,0,1-3.87-3.62,10.22,10.22,0,0,1-1.43-5.39,10.07,10.07,0,0,1,3.38-8.06q3.36-2.92,9.47-2.92Q486.8,2.5,490.33,6.81Zm-13.85,3.43a4.13,4.13,0,0,0-1.22,3.19,4.12,4.12,0,0,0,1.22,3.18,5.84,5.84,0,0,0,6.93,0,4.09,4.09,0,0,0,1.24-3.16,4.08,4.08,0,0,0-1.24-3.16A4.91,4.91,0,0,0,480,9.11,5,5,0,0,0,476.48,10.24ZM521.26,5a7.78,7.78,0,0,1,3.33,6.64A7,7,0,0,1,523.21,16a8.28,8.28,0,0,1-3.87,2.77v.05a9.61,9.61,0,0,1,4.67,3,7.59,7.59,0,0,1,1.63,4.95,7.6,7.6,0,0,1-3.58,6.64q-3.57,2.43-9.87,2.43t-9.79-2.43a7.59,7.59,0,0,1-3.6-6.64,7.64,7.64,0,0,1,1.62-4.95,9.64,9.64,0,0,1,4.68-3v-.05A8.36,8.36,0,0,1,501.22,16a7.09,7.09,0,0,1-1.37-4.34A7.79,7.79,0,0,1,503.17,5q3.33-2.41,9-2.42C516,2.6,519.05,3.41,521.26,5Zm-5.32,23.6a3.56,3.56,0,0,0,1.35-2.94,3.54,3.54,0,0,0-1.35-3,6,6,0,0,0-3.75-1.05,5.85,5.85,0,0,0-3.69,1.05,3.54,3.54,0,0,0-1.35,3,3.56,3.56,0,0,0,1.35,2.94,5.79,5.79,0,0,0,3.69,1.07A5.91,5.91,0,0,0,515.94,28.62ZM509,9.7a3.42,3.42,0,0,0-1.15,2.75A3.41,3.41,0,0,0,509,15.17a4.71,4.71,0,0,0,3.17,1,4.82,4.82,0,0,0,3.23-1,3.41,3.41,0,0,0,1.17-2.72,3.4,3.4,0,0,0-1.17-2.75,4.92,4.92,0,0,0-3.23-1A4.77,4.77,0,0,0,509,9.7ZM555.93,3V9a32.62,32.62,0,0,0-8.35,12,40.09,40.09,0,0,0-2.45,14.36h-8.5a35.68,35.68,0,0,1,2.63-13.75,36.92,36.92,0,0,1,8.27-12H528.79V3Z"/></g></g></svg>